<?xml version="1.0" encoding="UTF-8"?>
<svg width="2400px" height="1800px" viewBox="0 0 2400 1800" version="1.1" xmlns="http://www.w3.org/2000/svg" xmlns:xlink="http://www.w3.org/1999/xlink">
    <!-- Generator: Sketch 50.2 (55047) - http://www.bohemiancoding.com/sketch -->
    <title>Slice</title>
    <desc>Created with Sketch.</desc>
    <defs></defs>
    <g id="Page-1" stroke="none" stroke-width="1" fill="none" fill-rule="evenodd">
        <path d="M707.254009,595.418704 C716.696653,593.9783 726.283338,594.746515 735.79,594.506448 C902.300631,594.394417 1068.79526,594.426426 1235.30589,594.490444 C1245.98088,594.794529 1256.75189,593.802251 1267.34686,595.530735 C1280.11844,597.723349 1293.00204,604.925366 1298.23551,617.312835 C1304.15717,631.092694 1300.31609,646.953136 1293.40216,659.628685 C1202.99284,826.859517 1112.5035,994.058341 1021.90212,1161.19315 C1016.57263,1170.84385 1009.01852,1179.85437 998.791653,1184.44766 C991.813698,1187.53652 983.667417,1187.90463 976.577432,1184.9598 C965.294272,1180.47855 957.228013,1170.52376 951.61044,1160.10484 C861.201121,993.370148 770.871825,826.587441 680.670564,659.740717 C673.676606,646.905122 669.675485,630.804613 675.997256,616.912723 C681.454784,604.589272 694.434419,597.515291 707.254009,595.418704 Z" id="Shape" fill="#7625E6" fill-rule="nonzero"></path>
        <path d="M1429.66432,596.250937 C1435.15385,594.922565 1440.81944,594.394417 1446.46902,594.44243 C1468.8913,594.490444 1491.32959,594.314394 1513.75186,594.538457 C1543.80828,595.418704 1571.44802,617.61692 1579.48227,646.473001 C1583.35536,658.332322 1581.96297,670.911845 1582.25105,683.155274 C1582.29906,833.565395 1582.50712,983.975517 1582.13902,1134.38564 C1582.65116,1170.53976 1551.29838,1203.23692 1515.28829,1204.88538 C1492.33787,1205.06143 1469.40345,1204.86938 1446.45302,1204.9654 C1424.78295,1205.58958 1403.41697,1195.09064 1389.89318,1178.30194 C1379.17018,1165.17826 1373.31254,1148.1815 1373.9047,1131.23276 C1373.76066,976.005285 1373.71265,820.777814 1373.92071,665.550344 C1373.60062,633.237294 1398.1995,603.100855 1429.66432,596.250937 Z" id="Shape" fill="#7625E6" fill-rule="nonzero"></path>
        <path d="M1717.23285,606.65385 C1729.15619,605.277464 1740.95149,609.486643 1751.03431,615.600355 C1887.66458,693.894281 2024.19881,772.380261 2160.66903,850.930258 C2170.03165,856.499818 2179.69836,861.573239 2188.85292,867.478893 C2200.29613,875.225062 2210.21891,887.772576 2209.4827,902.272636 C2208.74649,917.332854 2197.28729,929.288202 2184.93183,936.586246 C2039.69115,1020.27368 1894.35445,1103.80107 1748.96974,1187.23244 C1735.9741,1194.65852 1718.91332,1198.81968 1705.13346,1191.05751 C1691.11353,1183.00725 1685.80005,1165.72241 1686.18415,1150.40612 C1685.86406,984.503665 1685.96009,818.601205 1686.16815,652.714749 C1685.89607,641.191522 1688.10469,629.124143 1695.01863,619.649489 C1700.18808,612.463477 1708.41438,607.630123 1717.23285,606.65385 Z" id="Shape" fill="#7625E6" fill-rule="nonzero"></path>
        <path d="M499.7559,612.159392 C517.408844,608.19028 532.693124,622.40226 540.39128,636.886316 C630.336469,802.628732 720.057595,968.515187 809.746712,1134.40164 C814.484038,1142.72397 818.773239,1151.52644 820.053598,1161.12913 C821.910118,1172.41229 818.693217,1184.81576 810.178833,1192.73798 C800.704179,1201.7485 787.116374,1205.17346 774.312788,1204.9494 C594.518438,1204.9334 414.724088,1204.9654 234.929737,1204.9494 C221.966107,1204.70933 208.218257,1200.59618 199.383783,1190.64139 C187.09234,1176.90955 189.941138,1156.0397 198.263469,1141.01149 C289.008882,973.044456 379.930344,805.15744 470.899819,637.318437 C477.141567,626.019273 486.680238,615.15223 499.7559,612.159392 Z" id="Shape" fill="#7625E6" fill-rule="nonzero"></path>
    </g>
</svg>